#!OML:ASF H:\BabyWalks\Project 1\Capture day 1\Session 1\baby.ASF
:FULLY-SPECIFIED
:DEGREES
946
root 43.6063 17.309 -1.69405 342.419 84.4418 342.16
lowerback 18.2351 0.625551 0.516966
upperback 5.25527 1.15527 -0.725325
thorax -4.53975 0.688309 -1.32273
lowerneck -0.283467 2.39521 5.11584
upperneck -6.40138 3.23951 -2.23195
head -1.84163 1.57927 -1.62624
rclavicle -6.26172e-015 2.78299e-015
rhumerus -42.2876 9.79759 -84.3492
rradius 52.0632
rwrist 1.18483
rhand -10.9404 -18.5982
rfingers 7.12502
rthumb 15.0779 -48.0291
lclavicle -6.26172e-015 2.78299e-015
lhumerus -43.9539 -9.99507 76.2542
lradius 56.2377
lwrist 2.95211
lhand 3.72915 10.9607
lfingers 7.12502
lthumb 29.1571 38.6973
rfemur 12.7767 12.5914 22.8791
rtibia 10.9133
rfoot -20.9192 -7.54722
rtoes -5.29105
lfemur -21.4644 0.221222 -15.0257
ltibia 36.6483
lfoot -17.9111 -8.41373
ltoes -3.47697
947
root 43.5937 17.3047 -1.68238 341.189 84.6662 341.045
lowerback 18.1876 0.606336 0.599519
upperback 5.24027 1.14681 -0.676187
thorax -4.53045 0.683483 -1.31483
lowerneck -0.217562 2.40916 5.15805
upperneck -6.47643 3.25437 -2.38621
head -1.87469 1.58851 -1.68654
rclavicle -2.68359e-015 -4.37326e-015
rhumerus -42.3136 9.92679 -84.3046
rradius 52.0141
rwrist 1.18358
rhand -10.7874 -18.5218
rfingers 7.12502
rthumb 15.2253 -47.9416
lclavicle -2.68359e-015 -4.37326e-015
lhumerus -43.8334 -9.95915 76.2002
lradius 56.5026
lwrist 3.09012
lhand 3.71359 10.8979
lfingers 7.12502
lthumb 29.1422 38.6371
rfemur 12.8683 12.4521 23.0092
rtibia 10.9915
rfoot -20.9759 -7.66765
rtoes -5.22001
lfemur -21.4575 0.0850857 -14.9561
ltibia 36.6928
lfoot -17.8627 -8.57931
ltoes -3.47799
948
root 43.5806 17.2999 -1.66974 339.786 84.8884 339.761
lowerback 18.1382 0.592409 0.682368
upperback 5.22521 1.14539 -0.624324
thorax -4.52004 0.682114 -1.30571
lowerneck -0.151515 2.42327 5.16214
upperneck -6.55495 3.27164 -2.48963
head -1.9099 1.5989 -1.72389
rclavicle 1.31198e-014 -1.94809e-014
rhumerus -42.324 10.0443 -84.251
rradius 51.9471
rwrist 1.19608
rhand -10.6286 -18.4295
rfingers 7.12502
rthumb 15.3782 -47.8376
lclavicle 1.31198e-014 -1.94809e-014
lhumerus -43.7091 -9.88981 76.1301
lradius 56.768
lwrist 3.22967
lhand 3.71114 10.8088
lfingers 7.12502
lthumb 29.1399 38.5484
rfemur 12.9638 12.3187 23.1537
rtibia 11.0683
rfoot -21.0404 -7.80525
rtoes -5.14224
lfemur -21.4597 -0.0500921 -14.8761
ltibia 36.7565
lfoot -17.8189 -8.75128
ltoes -3.48669
949
root 43.5667 17.2945 -1.65601 338.193 85.1061 338.293
lowerback 18.088 0.584307 0.764995
upperback 5.21164 1.15168 -0.570858
thorax -4.50752 0.684601 -1.29639
lowerneck -0.0816659 2.46093 5.17457
upperneck -6.62992 3.32101 -2.58779
head -1.9433 1.62517 -1.76145
rclavicle -6.85807e-015 -2.78299e-015
rhumerus -42.3172 10.1413 -84.1877
rradius 51.8626
rwrist 1.22786
rhand -10.4632 -18.3235
rfingers 7.12502
rthumb 15.5376 -47.7193
lclavicle -6.85807e-015 -2.78299e-015
lhumerus -43.5801 -9.77983 76.0396
lradius 57.0312
lwrist 3.37031
lhand 3.71957 10.6905
lfingers 7.12502
lthumb 29.1479 38.4287
rfemur 13.0644 12.1929 23.3143
rtibia 11.1464
rfoot -21.113 -7.96224
rtoes -5.05698
lfemur -21.468 -0.180905 -14.785
ltibia 36.8371
lfoot -17.7763 -8.9342
ltoes -3.49184
950
root 43.552 17.2884 -1.64119 336.349 85.3139 336.581
lowerback 18.0405 0.581047 0.848085
upperback 5.20029 1.16466 -0.514455
thorax -4.49382 0.690471 -1.28568
lowerneck -0.0273035 2.5173 5.17936
upperneck -6.68337 3.39593 -2.65769
head -1.96628 1.66395 -1.78809
rclavicle -1.17283e-014 1.11319e-014
rhumerus -42.2885 10.2262 -84.1184
rradius 51.7572
rwrist 1.26956
rhand -10.2961 -18.2103
rfingers 7.12502
rthumb 15.6985 -47.5935
lclavicle -1.17283e-014 1.11319e-014
lhumerus -43.4479 -9.61619 75.924
lradius 57.2926
lwrist 3.52245
lhand 3.73925 10.5392
lfingers 7.12502
lthumb 29.1667 38.2741
rfemur 13.1679 12.0756 23.4961
rtibia 11.2309
rfoot -21.1926 -8.13959
rtoes -4.97555
lfemur -21.4797 -0.306488 -14.6772
ltibia 36.9322
lfoot -17.735 -9.12619
ltoes -3.50037
951
root 43.5366 17.2818 -1.62535 334.26 85.5191 334.632
lowerback 17.9905 0.581274 0.927621
upperback 5.19439 1.18195 -0.455722
thorax -4.47301 0.698704 -1.27127
lowerneck 0.0249111 2.60286 5.18582
upperneck -6.72628 3.51067 -2.71299
head -1.98387 1.72239 -1.8105
rclavicle 3.67752e-015 -9.93923e-015
rhumerus -42.2346 10.2892 -84.0378
rradius 51.6321
rwrist 1.32416
rhand -10.124 -18.0935
rfingers 7.12502
rthumb 15.8642 -47.4636
lclavicle 3.67752e-015 -9.93923e-015
lhumerus -43.3017 -9.39844 75.7841
lradius 57.5442
lwrist 3.70215
lhand 3.76754 10.3619
lfingers 7.12502
lthumb 29.1937 38.0922
rfemur 13.2759 11.957 23.6917
rtibia 11.3241
rfoot -21.2818 -8.33452
rtoes -4.88975
lfemur -21.4919 -0.436149 -14.5604
ltibia 37.0386
lfoot -17.6881 -9.32452
ltoes -3.49806
952
root 43.5203 17.275 -1.60847 331.911 85.7135 332.435
lowerback 17.9519 0.587618 1.00764
upperback 5.18483 1.20732 -0.396756
thorax -4.46189 0.710793 -1.25891
lowerneck 0.0494313 2.70947 5.21378
upperneck -6.72216 3.65222 -2.7681
head -1.97965 1.79389 -1.83538
rclavicle 1.8487e-014 3.97569e-016
rhumerus -42.1704 10.3259 -83.9515
rradius 51.4854
rwrist 1.38603
rhand -9.95856 -17.9732
rfingers 7.12502
rthumb 16.0236 -47.3306
lclavicle 1.8487e-014 3.97569e-016
lhumerus -43.1554 -9.13907 75.6228
lradius 57.781
lwrist 3.92668
lhand 3.78221 10.1624
lfingers 7.12502
lthumb 29.2077 37.8902
rfemur 13.3884 11.8428 23.9027
rtibia 11.4227
rfoot -21.3719 -8.54646
rtoes -4.80781
lfemur -21.5013 -0.566609 -14.4323
ltibia 37.1529
lfoot -17.6392 -9.52358
ltoes -3.49986
953
root 43.5033 17.2678 -1.59083 329.27 85.9021 329.956
lowerback 17.9178 0.598058 1.09173
upperback 5.17689 1.23887 -0.339419
thorax -4.45108 0.72602 -1.25195
lowerneck 0.0585571 2.83769 5.27481
upperneck -6.6869 3.82137 -2.84016
head -1.96046 1.8789 -1.87087
rclavicle -7.55382e-015 3.77691e-015
rhumerus -42.0889 10.3299 -83.8574
rradius 51.3151
rwrist 1.45589
rhand -9.80339 -17.8523
rfingers 7.12502
rthumb 16.173 -47.1976
lclavicle -7.55382e-015 3.77691e-015
lhumerus -43.0009 -8.84066 75.4428
lradius 58.0003
lwrist 4.20469
lhand 3.77693 9.96173
lfingers 7.12502
lthumb 29.2027 37.6904
rfemur 13.5074 11.72 24.1226
rtibia 11.5272
rfoot -21.4635 -8.76487
rtoes -4.72422
lfemur -21.5041 -0.699785 -14.2983
ltibia 37.2699
lfoot -17.5873 -9.72478
ltoes -3.50379
954
root 43.4858 17.2605 -1.57239 326.245 86.0826 327.107
lowerback 17.8865 0.611647 1.18458
upperback 5.17217 1.27629 -0.283225
thorax -4.43791 0.74429 -1.25241
lowerneck 0.0599875 2.9802 5.35761
upperneck -6.63165 4.00921 -2.9184
head -1.93189 1.97296 -1.91168
rclavicle -5.1684e-015 7.95139e-015
rhumerus -41.9913 10.2989 -83.7571
rradius 51.1211
rwrist 1.53685
rhand -9.66328 -17.7383
rfingers 7.12502
rthumb 16.3079 -47.0726
lclavicle -5.1684e-015 7.95139e-015
lhumerus -42.8327 -8.50876 75.2458
lradius 58.1929
lwrist 4.54333
lhand 3.73343 9.76258
lfingers 7.12502
lthumb 29.1612 37.4985
rfemur 13.6361 11.5893 24.3562
rtibia 11.6378
rfoot -21.555 -8.99377
rtoes -4.64685
lfemur -21.495 -0.836904 -14.1554
ltibia 37.3849
lfoot -17.532 -9.92555
ltoes -3.518
955
root 43.4678 17.2532 -1.55321 322.844 86.2603 323.896
lowerback 17.8573 0.628326 1.28069
upperback 5.16987 1.31839 -0.229888
thorax -4.42294 0.765016 -1.25872
lowerneck 0.0642402 3.13202 5.44538
upperneck -6.56639 4.21027 -2.986
head -1.89976 2.07335 -1.94973
rclavicle -1.2424e-014 5.1684e-015
rhumerus -41.8815 10.2268 -83.6485
rradius 50.9065
rwrist 1.63382
rhand -9.53912 -17.6298
rfingers 7.12502
rthumb 16.4274 -46.9542
lclavicle -1.2424e-014 5.1684e-015
lhumerus -42.6534 -8.15987 75.0407
lradius 58.3519
lwrist 4.94433
lhand 3.63372 9.57587
lfingers 7.12502
lthumb 29.0659 37.3283
rfemur 13.7753 11.4438 24.5938
rtibia 11.7517
rfoot -21.6427 -9.22857
rtoes -4.57852
lfemur -21.4722 -0.982311 -14.013
ltibia 37.4928
lfoot -17.4729 -10.1234
ltoes -3.54205
956
root 43.4494 17.2458 -1.53332 319.022 86.4379 320.279
lowerback 17.8376 0.648002 1.38078
upperback 5.16569 1.36502 -0.181808
thorax -4.41452 0.787954 -1.27403
lowerneck 0.0839355 3.28553 5.54082
upperneck -6.49802 4.41485 -3.04652
head -1.86889 2.1752 -1.98704
rclavicle 7.05686e-015 1.19271e-014
rhumerus -41.77 10.1119 -83.5354
rradius 50.6714
rwrist 1.74246
rhand -9.4353 -17.5399
rfingers 7.12502
rthumb 16.5274 -46.856
lclavicle 7.05686e-015 1.19271e-014
lhumerus -42.473 -7.81199 74.8355
lradius 58.4769
lwrist 5.39513
lhand 3.45864 9.40424
lfingers 7.12502
lthumb 28.8987 37.1854
rfemur 13.9289 11.2791 24.8298
rtibia 11.867
rfoot -21.7251 -9.46552
rtoes -4.52212
lfemur -21.4305 -1.13789 -13.8769
ltibia 37.5887
lfoot -17.4105 -10.3197
ltoes -3.57244
957
root 43.4306 17.2387 -1.51283 314.683 86.6138 316.16
lowerback 17.8181 0.669074 1.48382
upperback 5.16605 1.41408 -0.138032
thorax -4.40105 0.812354 -1.29599
lowerneck 0.11134 3.44143 5.63819
upperneck -6.43031 4.6236 -3.09777
head -1.83923 2.27895 -2.02177
rclavicle 1.2921e-015 -6.75868e-015
rhumerus -41.6452 9.95602 -83.4138
rradius 50.417
rwrist 1.8709
rhand -9.3536 -17.4638
rfingers 7.12502
rthumb 16.606 -46.7734
lclavicle 1.2921e-015 -6.75868e-015
lhumerus -42.2852 -7.47571 74.6375
lradius 58.5661
lwrist 5.87895
lhand 3.1916 9.25744
lfingers 7.12502
lthumb 28.6436 37.0819
rfemur 14.0943 11.0904 25.0617
rtibia 11.9856
rfoot -21.802 -9.70045
rtoes -4.47843
lfemur -21.3696 -1.30528 -13.748
ltibia 37.6683
lfoot -17.3402 -10.5147
ltoes -3.59951
958
root 43.4115 17.2317 -1.49153 309.691 86.788 311.401
lowerback 17.8043 0.690859 1.58537
upperback 5.16479 1.46381 -0.0971476
thorax -4.39217 0.837088 -1.32044
lowerneck 0.156356 3.58867 5.70045
upperneck -6.36809 4.82333 -3.10634
head -1.81618 2.37809 -2.03679
rclavicle -3.03147e-015 3.77691e-015
rhumerus -41.5195 9.76418 -83.2858
rradius 50.1429
rwrist 2.0246
rhand -9.28854 -17.3984
rfingers 7.12502
rthumb 16.6687 -46.7027
lclavicle -3.03147e-015 3.77691e-015
lhumerus -42.1057 -7.17064 74.4578
lradius 58.6237
lwrist 6.37352
lhand 2.82087 9.14092
lfingers 7.12502
lthumb 28.2894 37.0247
rfemur 14.2719 10.8768 25.2884
rtibia 12.1049
rfoot -21.8732 -9.93355
rtoes -4.44557
lfemur -21.2912 -1.4873 -13.6278
ltibia 37.7298
lfoot -17.2608 -10.7116
ltoes -3.62818
